<svg width="12" height="8" viewBox="0 0 12 8" fill="none" xmlns="http://www.w3.org/2000/svg">
<path d="M5.99746 5.15586L10.4868 0.666692C10.6101 0.543083 10.775 0.475083 10.9508 0.475083C11.1267 0.475083 11.2915 0.543083 11.415 0.666692L11.8082 1.06006C11.9319 1.18347 12 1.34845 12 1.52425C12 1.70006 11.9319 1.86484 11.8082 1.98835L6.46322 7.33342C6.33932 7.45742 6.17376 7.52533 5.99776 7.52484C5.82098 7.52533 5.65561 7.45752 5.53161 7.33342L0.191806 1.99333C0.0680981 1.86981 0 1.70503 0 1.52913C0 1.35333 0.0680981 1.18855 0.191806 1.06494L0.584976 0.671669C0.840878 0.415766 1.25746 0.415766 1.51327 0.671669L5.99746 5.15586Z" fill="#FE616B"/>
</svg>
