<svg width="12" height="12" viewBox="0 0 12 12" fill="none" xmlns="http://www.w3.org/2000/svg">
<path d="M0.25057 2.23022C1.89752 3.62501 4.78741 6.07887 5.63679 6.84398C5.75081 6.94725 5.87311 6.99975 6.00007 6.99975C6.12677 6.99975 6.24886 6.94774 6.36262 6.84497C7.21272 6.0791 10.1026 3.62501 11.7496 2.23022C11.8521 2.14355 11.8678 1.9912 11.7847 1.88524C11.5928 1.64039 11.3067 1.5 11.0001 1.5H1.00008C0.693445 1.5 0.407296 1.64039 0.215414 1.88527C0.132398 1.9912 0.148031 2.14355 0.25057 2.23022Z" fill="white"/>
<path d="M11.855 2.98608C11.7664 2.94483 11.6621 2.95922 11.5884 3.02222C9.76195 4.57054 7.43091 6.55518 6.6975 7.21605C6.28587 7.58763 5.71458 7.58763 5.30198 7.21556C4.52025 6.51122 1.90256 4.28587 0.411609 3.02219C0.337383 2.95919 0.232898 2.94529 0.145008 2.98605C0.0566484 3.02709 0 3.11547 0 3.21288V9.49999C0 10.0515 0.448477 10.5 1.00001 10.5H11C11.5515 10.5 12 10.0515 12 9.49999V3.21288C12 3.11547 11.9434 3.02686 11.855 2.98608Z" fill="white"/>
</svg>
