<svg width="28" height="28" viewBox="0 0 28 28" fill="none" xmlns="http://www.w3.org/2000/svg">
<circle cx="14" cy="14" r="14" fill="white" fill-opacity="0.24"/>
<path d="M8.25057 10.2302C9.89752 11.625 12.7874 14.0789 13.6368 14.844C13.7508 14.9473 13.8731 14.9998 14.0001 14.9998C14.1268 14.9998 14.2489 14.9477 14.3626 14.845C15.2127 14.0791 18.1026 11.625 19.7496 10.2302C19.8521 10.1435 19.8678 9.9912 19.7847 9.88524C19.5928 9.64039 19.3067 9.5 19.0001 9.5H9.00008C8.69344 9.5 8.4073 9.64039 8.21541 9.88527C8.1324 9.9912 8.14803 10.1435 8.25057 10.2302Z" fill="white"/>
<path d="M19.855 10.9861C19.7664 10.9448 19.6621 10.9592 19.5884 11.0222C17.762 12.5705 15.4309 14.5552 14.6975 15.2161C14.2859 15.5876 13.7146 15.5876 13.302 15.2156C12.5202 14.5112 9.90256 12.2859 8.41161 11.0222C8.33738 10.9592 8.2329 10.9453 8.14501 10.9861C8.05665 11.0271 8 11.1155 8 11.2129V17.5C8 18.0515 8.44848 18.5 9.00001 18.5H19C19.5515 18.5 20 18.0515 20 17.5V11.2129C20 11.1155 19.9434 11.0269 19.855 10.9861Z" fill="white"/>
</svg>
