<svg width="283" height="24" viewBox="0 0 283 24" fill="none" xmlns="http://www.w3.org/2000/svg">
<path d="M6.688 18.096C5.57867 18.096 4.576 17.8507 3.68 17.36C2.79467 16.8693 2.096 16.192 1.584 15.328C1.08267 14.4533 0.832 13.4773 0.832 12.4C0.832 11.3227 1.08267 10.352 1.584 9.488C2.096 8.61333 2.8 7.93067 3.696 7.44C4.592 6.94933 5.59467 6.704 6.704 6.704C7.536 6.704 8.304 6.84267 9.008 7.12C9.712 7.39733 10.3093 7.80267 10.8 8.336L10.048 9.088C9.17333 8.20267 8.06933 7.76 6.736 7.76C5.85067 7.76 5.04533 7.96267 4.32 8.368C3.59467 8.77333 3.024 9.328 2.608 10.032C2.20267 10.736 2 11.5253 2 12.4C2 13.2747 2.20267 14.064 2.608 14.768C3.024 15.472 3.59467 16.0267 4.32 16.432C5.04533 16.8373 5.85067 17.04 6.736 17.04C8.08 17.04 9.184 16.592 10.048 15.696L10.8 16.448C10.3093 16.9813 9.70667 17.392 8.992 17.68C8.288 17.9573 7.52 18.096 6.688 18.096ZM16.149 18.08C15.3383 18.08 14.6077 17.8987 13.957 17.536C13.3063 17.1627 12.7943 16.6507 12.421 16C12.0477 15.3493 11.861 14.6133 11.861 13.792C11.861 12.9707 12.0477 12.2347 12.421 11.584C12.7943 10.9333 13.3063 10.4267 13.957 10.064C14.6077 9.70133 15.3383 9.52 16.149 9.52C16.9597 9.52 17.6903 9.70133 18.341 10.064C18.9917 10.4267 19.4983 10.9333 19.861 11.584C20.2343 12.2347 20.421 12.9707 20.421 13.792C20.421 14.6133 20.2343 15.3493 19.861 16C19.4983 16.6507 18.9917 17.1627 18.341 17.536C17.6903 17.8987 16.9597 18.08 16.149 18.08ZM16.149 17.072C16.7463 17.072 17.2797 16.9387 17.749 16.672C18.229 16.3947 18.6023 16.0053 18.869 15.504C19.1357 15.0027 19.269 14.432 19.269 13.792C19.269 13.152 19.1357 12.5813 18.869 12.08C18.6023 11.5787 18.229 11.1947 17.749 10.928C17.2797 10.6507 16.7463 10.512 16.149 10.512C15.5517 10.512 15.013 10.6507 14.533 10.928C14.0637 11.1947 13.6903 11.5787 13.413 12.08C13.1463 12.5813 13.013 13.152 13.013 13.792C13.013 14.432 13.1463 15.0027 13.413 15.504C13.6903 16.0053 14.0637 16.3947 14.533 16.672C15.013 16.9387 15.5517 17.072 16.149 17.072ZM27.0763 9.52C27.8656 9.52 28.5803 9.70133 29.2203 10.064C29.8603 10.416 30.3616 10.9173 30.7243 11.568C31.0869 12.2187 31.2683 12.96 31.2683 13.792C31.2683 14.6347 31.0869 15.3813 30.7243 16.032C30.3616 16.6827 29.8603 17.1893 29.2203 17.552C28.5909 17.904 27.8763 18.08 27.0763 18.08C26.3936 18.08 25.7749 17.9413 25.2203 17.664C24.6763 17.376 24.2283 16.96 23.8763 16.416V21.104H22.7403V9.584H23.8283V11.248C24.1696 10.6933 24.6176 10.2667 25.1723 9.968C25.7376 9.66933 26.3723 9.52 27.0763 9.52ZM26.9963 17.072C27.5829 17.072 28.1163 16.9387 28.5963 16.672C29.0763 16.3947 29.4496 16.0053 29.7163 15.504C29.9936 15.0027 30.1323 14.432 30.1323 13.792C30.1323 13.152 29.9936 12.5867 29.7163 12.096C29.4496 11.5947 29.0763 11.2053 28.5963 10.928C28.1163 10.6507 27.5829 10.512 26.9963 10.512C26.3989 10.512 25.8603 10.6507 25.3802 10.928C24.9109 11.2053 24.5376 11.5947 24.2603 12.096C23.9936 12.5867 23.8603 13.152 23.8603 13.792C23.8603 14.432 23.9936 15.0027 24.2603 15.504C24.5376 16.0053 24.9109 16.3947 25.3802 16.672C25.8603 16.9387 26.3989 17.072 26.9963 17.072ZM40.4216 9.584L36.2136 19.008C35.8723 19.7973 35.4776 20.3573 35.0296 20.688C34.5816 21.0187 34.043 21.184 33.4136 21.184C33.0083 21.184 32.6296 21.12 32.2776 20.992C31.9256 20.864 31.6216 20.672 31.3656 20.416L31.8936 19.568C32.3203 19.9947 32.8323 20.208 33.4296 20.208C33.8136 20.208 34.139 20.1013 34.4056 19.888C34.683 19.6747 34.939 19.312 35.1736 18.8L35.5416 17.984L31.7816 9.584H32.9656L36.1336 16.736L39.3016 9.584H40.4216ZM43.1095 11.232C43.3762 10.6667 43.7708 10.24 44.2935 9.952C44.8268 9.664 45.4828 9.52 46.2615 9.52V10.624L45.9895 10.608C45.1042 10.608 44.4108 10.88 43.9095 11.424C43.4082 11.968 43.1575 12.7307 43.1575 13.712V18H42.0215V9.584H43.1095V11.232ZM48.3184 9.584H49.4544V18H48.3184V9.584ZM48.8944 7.744C48.6597 7.744 48.4624 7.664 48.3024 7.504C48.1424 7.344 48.0624 7.152 48.0624 6.928C48.0624 6.71467 48.1424 6.528 48.3024 6.368C48.4624 6.208 48.6597 6.128 48.8944 6.128C49.129 6.128 49.3264 6.208 49.4864 6.368C49.6464 6.51733 49.7264 6.69867 49.7264 6.912C49.7264 7.14667 49.6464 7.344 49.4864 7.504C49.3264 7.664 49.129 7.744 48.8944 7.744ZM60.4073 9.584V16.976C60.4073 18.4053 60.0553 19.4613 59.3513 20.144C58.6579 20.8373 57.6073 21.184 56.1993 21.184C55.4206 21.184 54.6793 21.0667 53.9753 20.832C53.2819 20.608 52.7166 20.2933 52.2793 19.888L52.8553 19.024C53.2606 19.3867 53.7513 19.6693 54.3273 19.872C54.9139 20.0747 55.5273 20.176 56.1673 20.176C57.2339 20.176 58.0179 19.9253 58.5193 19.424C59.0206 18.9333 59.2713 18.1653 59.2713 17.12V16.048C58.9193 16.5813 58.4553 16.9867 57.8793 17.264C57.3139 17.5413 56.6846 17.68 55.9913 17.68C55.2019 17.68 54.4819 17.5093 53.8313 17.168C53.1913 16.816 52.6846 16.3307 52.3113 15.712C51.9486 15.0827 51.7673 14.3733 51.7673 13.584C51.7673 12.7947 51.9486 12.0907 52.3113 11.472C52.6846 10.8533 53.1913 10.3733 53.8313 10.032C54.4713 9.69067 55.1913 9.52 55.9913 9.52C56.7059 9.52 57.3513 9.664 57.9273 9.952C58.5033 10.24 58.9673 10.656 59.3193 11.2V9.584H60.4073ZM56.1033 16.672C56.7113 16.672 57.2606 16.544 57.7513 16.288C58.2419 16.0213 58.6206 15.6533 58.8873 15.184C59.1646 14.7147 59.3033 14.1813 59.3033 13.584C59.3033 12.9867 59.1646 12.4587 58.8873 12C58.6206 11.5307 58.2419 11.168 57.7513 10.912C57.2713 10.6453 56.7219 10.512 56.1033 10.512C55.4953 10.512 54.9459 10.64 54.4553 10.896C53.9753 11.152 53.5966 11.5147 53.3193 11.984C53.0526 12.4533 52.9193 12.9867 52.9193 13.584C52.9193 14.1813 53.0526 14.7147 53.3193 15.184C53.5966 15.6533 53.9753 16.0213 54.4553 16.288C54.9459 16.544 55.4953 16.672 56.1033 16.672ZM67.872 9.52C68.928 9.52 69.7653 9.82933 70.384 10.448C71.0133 11.056 71.328 11.9467 71.328 13.12V18H70.192V13.232C70.192 12.3573 69.9733 11.6907 69.536 11.232C69.0987 10.7733 68.4747 10.544 67.664 10.544C66.7573 10.544 66.0373 10.816 65.504 11.36C64.9813 11.8933 64.72 12.6347 64.72 13.584V18H63.584V6.128H64.72V11.056C65.0293 10.5653 65.456 10.1867 66 9.92C66.544 9.65333 67.168 9.52 67.872 9.52ZM78.8441 17.488C78.6308 17.68 78.3641 17.8293 78.0441 17.936C77.7348 18.032 77.4095 18.08 77.0681 18.08C76.2788 18.08 75.6708 17.8667 75.2441 17.44C74.8175 17.0133 74.6041 16.4107 74.6041 15.632V10.544H73.1001V9.584H74.6041V7.744H75.7401V9.584H78.3001V10.544H75.7401V15.568C75.7401 16.0693 75.8628 16.4533 76.1081 16.72C76.3641 16.976 76.7268 17.104 77.1961 17.104C77.4308 17.104 77.6548 17.0667 77.8681 16.992C78.0921 16.9173 78.2841 16.8107 78.4441 16.672L78.8441 17.488Z" fill="#650107" fill-opacity="0.38"/>
<path d="M115.776 11.392C117.397 11.392 118.576 11.6853 119.312 12.272C120.059 12.848 120.432 13.6587 120.432 14.704C120.432 15.3547 120.277 15.936 119.968 16.448C119.669 16.96 119.216 17.3653 118.608 17.664C118 17.952 117.253 18.096 116.368 18.096C115.568 18.096 114.805 17.968 114.08 17.712C113.365 17.4453 112.789 17.0933 112.352 16.656L112.912 15.744C113.285 16.128 113.776 16.4427 114.384 16.688C114.992 16.9227 115.648 17.04 116.352 17.04C117.28 17.04 117.995 16.832 118.496 16.416C119.008 16 119.264 15.4453 119.264 14.752C119.264 13.984 118.976 13.4027 118.4 13.008C117.835 12.6133 116.875 12.416 115.52 12.416H113.136L113.712 6.8H119.84V7.824H114.72L114.336 11.392H115.776ZM133.143 9.52C134.199 9.52 135.025 9.824 135.623 10.432C136.231 11.04 136.535 11.936 136.535 13.12V18H135.399V13.232C135.399 12.3573 135.185 11.6907 134.759 11.232C134.343 10.7733 133.751 10.544 132.983 10.544C132.108 10.544 131.42 10.816 130.919 11.36C130.417 11.8933 130.167 12.6347 130.167 13.584V18H129.031V13.232C129.031 12.3573 128.817 11.6907 128.391 11.232C127.975 10.7733 127.377 10.544 126.599 10.544C125.735 10.544 125.047 10.816 124.535 11.36C124.033 11.8933 123.783 12.6347 123.783 13.584V18H122.647V9.584H123.735V11.12C124.033 10.608 124.449 10.2133 124.983 9.936C125.516 9.65867 126.129 9.52 126.823 9.52C127.527 9.52 128.135 9.66933 128.647 9.968C129.169 10.2667 129.559 10.7093 129.815 11.296C130.124 10.7413 130.567 10.3093 131.143 10C131.729 9.68 132.396 9.52 133.143 9.52ZM146.975 14.144H139.935C139.999 15.0187 140.335 15.728 140.943 16.272C141.551 16.8053 142.319 17.072 143.247 17.072C143.769 17.072 144.249 16.9813 144.687 16.8C145.124 16.608 145.503 16.3307 145.823 15.968L146.463 16.704C146.089 17.152 145.62 17.4933 145.055 17.728C144.5 17.9627 143.887 18.08 143.215 18.08C142.351 18.08 141.583 17.8987 140.911 17.536C140.249 17.1627 139.732 16.6507 139.359 16C138.985 15.3493 138.799 14.6133 138.799 13.792C138.799 12.9707 138.975 12.2347 139.327 11.584C139.689 10.9333 140.18 10.4267 140.799 10.064C141.428 9.70133 142.132 9.52 142.911 9.52C143.689 9.52 144.388 9.70133 145.007 10.064C145.625 10.4267 146.111 10.9333 146.463 11.584C146.815 12.224 146.991 12.96 146.991 13.792L146.975 14.144ZM142.911 10.496C142.1 10.496 141.417 10.7573 140.863 11.28C140.319 11.792 140.009 12.464 139.935 13.296H145.903C145.828 12.464 145.513 11.792 144.959 11.28C144.415 10.7573 143.732 10.496 142.911 10.496ZM149.415 18.08C149.18 18.08 148.977 17.9947 148.807 17.824C148.647 17.6533 148.567 17.4453 148.567 17.2C148.567 16.9547 148.647 16.752 148.807 16.592C148.977 16.4213 149.18 16.336 149.415 16.336C149.649 16.336 149.852 16.4213 150.023 16.592C150.193 16.752 150.279 16.9547 150.279 17.2C150.279 17.4453 150.193 17.6533 150.023 17.824C149.852 17.9947 149.649 18.08 149.415 18.08ZM155.899 18.08C155.088 18.08 154.358 17.8987 153.707 17.536C153.056 17.1627 152.544 16.6507 152.171 16C151.798 15.3493 151.611 14.6133 151.611 13.792C151.611 12.9707 151.798 12.2347 152.171 11.584C152.544 10.9333 153.056 10.4267 153.707 10.064C154.358 9.70133 155.088 9.52 155.899 9.52C156.71 9.52 157.44 9.70133 158.091 10.064C158.742 10.4267 159.248 10.9333 159.611 11.584C159.984 12.2347 160.171 12.9707 160.171 13.792C160.171 14.6133 159.984 15.3493 159.611 16C159.248 16.6507 158.742 17.1627 158.091 17.536C157.44 17.8987 156.71 18.08 155.899 18.08ZM155.899 17.072C156.496 17.072 157.03 16.9387 157.499 16.672C157.979 16.3947 158.352 16.0053 158.619 15.504C158.886 15.0027 159.019 14.432 159.019 13.792C159.019 13.152 158.886 12.5813 158.619 12.08C158.352 11.5787 157.979 11.1947 157.499 10.928C157.03 10.6507 156.496 10.512 155.899 10.512C155.302 10.512 154.763 10.6507 154.283 10.928C153.814 11.1947 153.44 11.5787 153.163 12.08C152.896 12.5813 152.763 13.152 152.763 13.792C152.763 14.432 152.896 15.0027 153.163 15.504C153.44 16.0053 153.814 16.3947 154.283 16.672C154.763 16.9387 155.302 17.072 155.899 17.072ZM166.778 9.52C167.834 9.52 168.672 9.82933 169.29 10.448C169.92 11.056 170.234 11.9467 170.234 13.12V18H169.098V13.232C169.098 12.3573 168.88 11.6907 168.442 11.232C168.005 10.7733 167.381 10.544 166.57 10.544C165.664 10.544 164.944 10.816 164.41 11.36C163.888 11.8933 163.626 12.6347 163.626 13.584V18H162.49V9.584H163.578V11.136C163.888 10.624 164.314 10.2293 164.858 9.952C165.413 9.664 166.053 9.52 166.778 9.52ZM173.318 6.128H174.454V18H173.318V6.128ZM177.727 18.08C177.493 18.08 177.29 17.9947 177.119 17.824C176.959 17.6533 176.879 17.4453 176.879 17.2C176.879 16.9547 176.959 16.752 177.119 16.592C177.29 16.4213 177.493 16.336 177.727 16.336C177.962 16.336 178.165 16.4213 178.335 16.592C178.506 16.752 178.591 16.9547 178.591 17.2C178.591 17.4453 178.506 17.6533 178.335 17.824C178.165 17.9947 177.962 18.08 177.727 18.08ZM192.457 15.008H186.217L184.873 18H183.641L188.761 6.8H189.929L195.049 18H193.801L192.457 15.008ZM192.025 14.048L189.337 8.032L186.649 14.048H192.025ZM196.662 6.128H197.798V18H196.662V6.128ZM200.959 6.128H202.095V18H200.959V6.128ZM217.331 18L214.771 14.4C214.483 14.432 214.185 14.448 213.875 14.448H210.867V18H209.683V6.8H213.875C215.305 6.8 216.425 7.14133 217.235 7.824C218.046 8.50667 218.451 9.44533 218.451 10.64C218.451 11.5147 218.227 12.256 217.779 12.864C217.342 13.4613 216.713 13.8933 215.891 14.16L218.627 18H217.331ZM213.843 13.44C214.953 13.44 215.801 13.1947 216.387 12.704C216.974 12.2133 217.267 11.5253 217.267 10.64C217.267 9.73333 216.974 9.04 216.387 8.56C215.801 8.06933 214.953 7.824 213.843 7.824H210.867V13.44H213.843ZM228.334 14.144H221.294C221.358 15.0187 221.694 15.728 222.302 16.272C222.91 16.8053 223.678 17.072 224.606 17.072C225.129 17.072 225.609 16.9813 226.046 16.8C226.483 16.608 226.862 16.3307 227.182 15.968L227.822 16.704C227.449 17.152 226.979 17.4933 226.414 17.728C225.859 17.9627 225.246 18.08 224.574 18.08C223.71 18.08 222.942 17.8987 222.27 17.536C221.609 17.1627 221.091 16.6507 220.718 16C220.345 15.3493 220.158 14.6133 220.158 13.792C220.158 12.9707 220.334 12.2347 220.686 11.584C221.049 10.9333 221.539 10.4267 222.158 10.064C222.787 9.70133 223.491 9.52 224.27 9.52C225.049 9.52 225.747 9.70133 226.366 10.064C226.985 10.4267 227.47 10.9333 227.822 11.584C228.174 12.224 228.35 12.96 228.35 13.792L228.334 14.144ZM224.27 10.496C223.459 10.496 222.777 10.7573 222.222 11.28C221.678 11.792 221.369 12.464 221.294 13.296H227.262C227.187 12.464 226.873 11.792 226.318 11.28C225.774 10.7573 225.091 10.496 224.27 10.496ZM232.918 18.08C232.235 18.08 231.579 17.984 230.95 17.792C230.331 17.5893 229.846 17.3387 229.494 17.04L230.006 16.144C230.358 16.4213 230.801 16.6507 231.334 16.832C231.867 17.0027 232.422 17.088 232.998 17.088C233.766 17.088 234.331 16.9707 234.694 16.736C235.067 16.4907 235.254 16.1493 235.254 15.712C235.254 15.4027 235.153 15.1627 234.95 14.992C234.747 14.8107 234.491 14.6773 234.182 14.592C233.873 14.496 233.462 14.4053 232.95 14.32C232.267 14.192 231.718 14.064 231.302 13.936C230.886 13.7973 230.529 13.568 230.23 13.248C229.942 12.928 229.798 12.4853 229.798 11.92C229.798 11.216 230.091 10.64 230.678 10.192C231.265 9.744 232.081 9.52 233.126 9.52C233.67 9.52 234.214 9.59467 234.758 9.744C235.302 9.88267 235.75 10.0693 236.102 10.304L235.606 11.216C234.913 10.736 234.086 10.496 233.126 10.496C232.401 10.496 231.851 10.624 231.478 10.88C231.115 11.136 230.934 11.472 230.934 11.888C230.934 12.208 231.035 12.464 231.238 12.656C231.451 12.848 231.713 12.992 232.022 13.088C232.331 13.1733 232.758 13.264 233.302 13.36C233.974 13.488 234.513 13.616 234.918 13.744C235.323 13.872 235.67 14.0907 235.958 14.4C236.246 14.7093 236.39 15.136 236.39 15.68C236.39 16.416 236.081 17.0027 235.462 17.44C234.854 17.8667 234.006 18.08 232.918 18.08ZM245.818 14.144H238.778C238.842 15.0187 239.178 15.728 239.786 16.272C240.394 16.8053 241.162 17.072 242.09 17.072C242.613 17.072 243.093 16.9813 243.53 16.8C243.968 16.608 244.346 16.3307 244.666 15.968L245.306 16.704C244.933 17.152 244.464 17.4933 243.898 17.728C243.344 17.9627 242.73 18.08 242.058 18.08C241.194 18.08 240.426 17.8987 239.754 17.536C239.093 17.1627 238.576 16.6507 238.202 16C237.829 15.3493 237.642 14.6133 237.642 13.792C237.642 12.9707 237.818 12.2347 238.17 11.584C238.533 10.9333 239.024 10.4267 239.642 10.064C240.272 9.70133 240.976 9.52 241.754 9.52C242.533 9.52 243.232 9.70133 243.85 10.064C244.469 10.4267 244.954 10.9333 245.306 11.584C245.658 12.224 245.834 12.96 245.834 13.792L245.818 14.144ZM241.754 10.496C240.944 10.496 240.261 10.7573 239.706 11.28C239.162 11.792 238.853 12.464 238.778 13.296H244.746C244.672 12.464 244.357 11.792 243.802 11.28C243.258 10.7573 242.576 10.496 241.754 10.496ZM249.235 11.232C249.501 10.6667 249.896 10.24 250.419 9.952C250.952 9.664 251.608 9.52 252.387 9.52V10.624L252.115 10.608C251.229 10.608 250.536 10.88 250.035 11.424C249.533 11.968 249.283 12.7307 249.283 13.712V18H248.147V9.584H249.235V11.232ZM261.875 9.584L258.131 18H256.963L253.235 9.584H254.419L257.571 16.752L260.755 9.584H261.875ZM270.568 14.144H263.528C263.592 15.0187 263.928 15.728 264.536 16.272C265.144 16.8053 265.912 17.072 266.84 17.072C267.363 17.072 267.843 16.9813 268.28 16.8C268.718 16.608 269.096 16.3307 269.416 15.968L270.056 16.704C269.683 17.152 269.214 17.4933 268.648 17.728C268.094 17.9627 267.48 18.08 266.808 18.08C265.944 18.08 265.176 17.8987 264.504 17.536C263.843 17.1627 263.326 16.6507 262.952 16C262.579 15.3493 262.392 14.6133 262.392 13.792C262.392 12.9707 262.568 12.2347 262.92 11.584C263.283 10.9333 263.774 10.4267 264.392 10.064C265.022 9.70133 265.726 9.52 266.504 9.52C267.283 9.52 267.982 9.70133 268.6 10.064C269.219 10.4267 269.704 10.9333 270.056 11.584C270.408 12.224 270.584 12.96 270.584 13.792L270.568 14.144ZM266.504 10.496C265.694 10.496 265.011 10.7573 264.456 11.28C263.912 11.792 263.603 12.464 263.528 13.296H269.496C269.422 12.464 269.107 11.792 268.552 11.28C268.008 10.7573 267.326 10.496 266.504 10.496ZM280.577 6.128V18H279.489V16.336C279.147 16.9013 278.694 17.3333 278.129 17.632C277.574 17.9307 276.945 18.08 276.241 18.08C275.451 18.08 274.737 17.8987 274.097 17.536C273.457 17.1733 272.955 16.6667 272.593 16.016C272.23 15.3653 272.049 14.624 272.049 13.792C272.049 12.96 272.23 12.2187 272.593 11.568C272.955 10.9173 273.457 10.416 274.097 10.064C274.737 9.70133 275.451 9.52 276.241 9.52C276.923 9.52 277.537 9.664 278.081 9.952C278.635 10.2293 279.089 10.64 279.441 11.184V6.128H280.577ZM276.337 17.072C276.923 17.072 277.451 16.9387 277.921 16.672C278.401 16.3947 278.774 16.0053 279.041 15.504C279.318 15.0027 279.457 14.432 279.457 13.792C279.457 13.152 279.318 12.5813 279.041 12.08C278.774 11.5787 278.401 11.1947 277.921 10.928C277.451 10.6507 276.923 10.512 276.337 10.512C275.739 10.512 275.201 10.6507 274.721 10.928C274.251 11.1947 273.878 11.5787 273.601 12.08C273.334 12.5813 273.201 13.152 273.201 13.792C273.201 14.432 273.334 15.0027 273.601 15.504C273.878 16.0053 274.251 16.3947 274.721 16.672C275.201 16.9387 275.739 17.072 276.337 17.072Z" fill="#650107" fill-opacity="0.38"/>
<path d="M96 20C91.5889 20 88 16.4111 88 12C88 7.58888 91.5889 4 96 4C100.411 4 104 7.58888 104 12C104 16.4111 100.411 20 96 20ZM96 5C92.1401 5 89 8.14013 89 12C89 15.8599 92.1401 19 96 19C99.8599 19 103 15.8599 103 12C103 8.14013 99.8599 5 96 5Z" fill="#650107" fill-opacity="0.38"/>
<path d="M96 16C93.7945 16 92 14.2056 92 12C92 9.79439 93.7944 7.99997 96 7.99997C97.0845 7.99997 98.0991 8.42674 98.8579 9.20163L98.1431 9.90083C97.5743 9.31976 96.8135 8.99994 96 8.99994C94.3457 8.99994 93 10.3456 93 12C93 13.6543 94.3457 15 96 15C96.813 15 97.5738 14.6801 98.1431 14.0991L98.857 14.7993C98.0986 15.5737 97.084 16 96 16Z" fill="#650107" fill-opacity="0.38"/>
</svg>
