<svg width="164" height="31" viewBox="0 0 164 31" fill="none" xmlns="http://www.w3.org/2000/svg">
<path d="M26.2227 23.8711C26.2227 24.3529 26.1641 24.8607 26.0469 25.3945C25.9427 25.9284 25.7669 26.4622 25.5195 26.9961C25.2852 27.5169 24.9792 28.0182 24.6016 28.5C24.237 28.9818 23.7878 29.4115 23.2539 29.7891C22.7331 30.1536 22.1276 30.4466 21.4375 30.668C20.7474 30.8893 19.9727 31 19.1133 31H0.5V25.9219H19.1133C19.7513 25.9219 20.2396 25.7266 20.5781 25.3359C20.9297 24.9453 21.1055 24.457 21.1055 23.8711V21.6055C21.1055 20.9414 20.9362 20.4336 20.5977 20.082C20.2591 19.7305 19.7513 19.5547 19.0742 19.5547H7.62891C6.3138 19.5547 5.20052 19.3203 4.28906 18.8516C3.39062 18.3698 2.66146 17.7708 2.10156 17.0547C1.54167 16.3385 1.13151 15.5638 0.871094 14.7305C0.623698 13.8971 0.5 13.1224 0.5 12.4062V2.99219H23.8984V8.07031H5.57812V12.4062C5.57812 13.0833 5.75391 13.5911 6.10547 13.9297C6.45703 14.2682 6.96484 14.4375 7.62891 14.4375H19.1133C19.8164 14.4375 20.5846 14.5677 21.418 14.8281C22.2513 15.0755 23.0195 15.4857 23.7227 16.0586C24.4388 16.6185 25.0312 17.3542 25.5 18.2656C25.9818 19.1771 26.2227 20.2904 26.2227 21.6055V23.8711Z" fill="#FE616B"/>
<path d="M49.2695 31H44.1914V16.9961C44.1914 16.332 44.0156 15.8307 43.6641 15.4922C43.3125 15.1406 42.7917 14.9648 42.1016 14.9648H35.5V31H30.4219V12.4062C30.4219 12.0547 30.487 11.7292 30.6172 11.4297C30.7474 11.1172 30.9297 10.8503 31.1641 10.6289C31.3984 10.3945 31.6719 10.2122 31.9844 10.082C32.2969 9.95182 32.6289 9.88672 32.9805 9.88672H42.1406C42.8438 9.88672 43.599 10.0104 44.4062 10.2578C45.2135 10.5052 45.9818 10.9023 46.7109 11.4492V9.88672H53.5859C54.0677 9.88672 54.5755 9.94531 55.1094 10.0625C55.6432 10.1667 56.1706 10.3359 56.6914 10.5703C57.2253 10.8047 57.7331 11.1107 58.2148 11.4883C58.6966 11.8529 59.1198 12.3021 59.4844 12.8359C59.849 13.3568 60.1419 13.9622 60.3633 14.6523C60.5846 15.3424 60.6953 16.1237 60.6953 16.9961V31H55.6172V16.9961C55.6172 16.332 55.4479 15.8307 55.1094 15.4922C54.7839 15.1406 54.276 14.9648 53.5859 14.9648H49.0156C49.1849 15.5898 49.2695 16.2669 49.2695 16.9961V31ZM88.0977 16.8789C88.0977 17.582 87.974 18.3438 87.7266 19.1641C87.4792 19.9714 87.0755 20.7266 86.5156 21.4297C85.9688 22.1198 85.2461 22.6992 84.3477 23.168C83.4622 23.6367 82.3815 23.8711 81.1055 23.8711H71.9453V19.0469H81.1055C81.7956 19.0469 82.3294 18.8385 82.707 18.4219C83.0846 17.9922 83.2734 17.4648 83.2734 16.8398C83.2734 16.1758 83.0586 15.6549 82.6289 15.2773C82.2122 14.8997 81.7044 14.7109 81.1055 14.7109H71.9453C71.2552 14.7109 70.7214 14.9258 70.3438 15.3555C69.9661 15.7721 69.7773 16.293 69.7773 16.918V24.0078C69.7773 24.6849 69.9857 25.2122 70.4023 25.5898C70.832 25.9674 71.3594 26.1562 71.9844 26.1562H81.1055V31H71.9453C71.2422 31 70.4805 30.8763 69.6602 30.6289C68.8529 30.3815 68.0977 29.9844 67.3945 29.4375C66.7044 28.8776 66.125 28.1549 65.6562 27.2695C65.1875 26.3711 64.9531 25.2839 64.9531 24.0078V16.8789C64.9531 16.1758 65.0768 15.4206 65.3242 14.6133C65.5716 13.793 65.9688 13.0378 66.5156 12.3477C67.0755 11.6445 67.7982 11.0586 68.6836 10.5898C69.582 10.1211 70.6693 9.88672 71.9453 9.88672H81.1055C81.8086 9.88672 82.5638 10.0104 83.3711 10.2578C84.1914 10.5052 84.9466 10.9089 85.6367 11.4688C86.3398 12.0156 86.9258 12.7383 87.3945 13.6367C87.8633 14.5221 88.0977 15.6029 88.0977 16.8789ZM94.8945 28.4414C94.8945 28.793 94.8229 29.125 94.6797 29.4375C94.5495 29.737 94.3672 30.0039 94.1328 30.2383C93.9115 30.4596 93.6445 30.6354 93.332 30.7656C93.0326 30.8958 92.7135 30.9609 92.375 30.9609C92.0234 30.9609 91.6914 30.8958 91.3789 30.7656C91.0794 30.6354 90.8125 30.4596 90.5781 30.2383C90.3568 30.0039 90.181 29.737 90.0508 29.4375C89.9206 29.125 89.8555 28.793 89.8555 28.4414C89.8555 28.1029 89.9206 27.7839 90.0508 27.4844C90.181 27.1719 90.3568 26.9049 90.5781 26.6836C90.8125 26.4492 91.0794 26.2669 91.3789 26.1367C91.6914 25.9935 92.0234 25.9219 92.375 25.9219C92.7135 25.9219 93.0326 25.9935 93.332 26.1367C93.6445 26.2669 93.9115 26.4492 94.1328 26.6836C94.3672 26.9049 94.5495 27.1719 94.6797 27.4844C94.8229 27.7839 94.8945 28.1029 94.8945 28.4414ZM121.828 23.8711C121.828 24.7435 121.717 25.5312 121.496 26.2344C121.275 26.9245 120.982 27.5365 120.617 28.0703C120.253 28.5911 119.829 29.0404 119.348 29.418C118.866 29.7826 118.358 30.082 117.824 30.3164C117.303 30.5508 116.77 30.7266 116.223 30.8438C115.689 30.9479 115.181 31 114.699 31H105.539C104.836 31 104.068 30.8763 103.234 30.6289C102.401 30.3815 101.626 29.9779 100.91 29.418C100.207 28.8451 99.6146 28.1094 99.1328 27.2109C98.6641 26.2995 98.4297 25.1862 98.4297 23.8711V16.9961C98.4297 15.694 98.6641 14.5938 99.1328 13.6953C99.6146 12.7839 100.207 12.0482 100.91 11.4883C101.626 10.9154 102.401 10.5052 103.234 10.2578C104.068 10.0104 104.836 9.88672 105.539 9.88672H114.699C116.001 9.88672 117.108 10.1211 118.02 10.5898C118.931 11.0586 119.667 11.651 120.227 12.3672C120.786 13.0703 121.19 13.8385 121.438 14.6719C121.698 15.5052 121.828 16.2799 121.828 16.9961V23.8711ZM116.75 17.0352C116.75 16.332 116.574 15.8112 116.223 15.4727C115.871 15.1341 115.363 14.9648 114.699 14.9648H105.578C104.901 14.9648 104.387 15.1406 104.035 15.4922C103.684 15.8307 103.508 16.332 103.508 16.9961V23.8711C103.508 24.5352 103.684 25.043 104.035 25.3945C104.387 25.7461 104.901 25.9219 105.578 25.9219H114.699C115.389 25.9219 115.904 25.7461 116.242 25.3945C116.581 25.043 116.75 24.5352 116.75 23.8711V17.0352ZM149.562 31H144.484V19.2812C144.484 18.6172 144.367 18.0247 144.133 17.5039C143.911 16.9701 143.605 16.5143 143.215 16.1367C142.824 15.7591 142.362 15.4727 141.828 15.2773C141.307 15.069 140.741 14.9648 140.129 14.9648H131.242V31H126.164V12.4062C126.164 12.0547 126.229 11.7292 126.359 11.4297C126.49 11.1172 126.672 10.8503 126.906 10.6289C127.141 10.3945 127.414 10.2122 127.727 10.082C128.039 9.95182 128.371 9.88672 128.723 9.88672H140.168C140.806 9.88672 141.477 9.95833 142.18 10.1016C142.896 10.2448 143.599 10.4792 144.289 10.8047C144.992 11.1172 145.656 11.5208 146.281 12.0156C146.919 12.4974 147.479 13.0898 147.961 13.793C148.456 14.4831 148.846 15.2839 149.133 16.1953C149.419 17.1068 149.562 18.1354 149.562 19.2812V31ZM163.293 31H161.027C160.298 31 159.517 30.8763 158.684 30.6289C157.863 30.3815 157.095 29.9779 156.379 29.418C155.663 28.8451 155.07 28.1094 154.602 27.2109C154.133 26.2995 153.898 25.1862 153.898 23.8711V0.960938H158.977V23.8711C158.977 24.4961 159.172 24.9974 159.562 25.375C159.953 25.7396 160.441 25.9219 161.027 25.9219H163.293V31Z" fill="#650107"/>
</svg>
