<svg width="15" height="11" viewBox="0 0 15 11" fill="none" xmlns="http://www.w3.org/2000/svg">
<path d="M6.22036 5.52H3.61636V8.068H2.73436V5.52H0.130359V4.694H2.73436V2.132H3.61636V4.694H6.22036V5.52ZM11.1577 4.4C12.1843 4.456 12.9637 4.736 13.4957 5.24C14.037 5.73467 14.3077 6.38333 14.3077 7.186C14.3077 7.746 14.1723 8.24533 13.9017 8.684C13.631 9.11333 13.2297 9.454 12.6977 9.706C12.1657 9.958 11.517 10.084 10.7517 10.084C10.0423 10.084 9.37032 9.972 8.73566 9.748C8.11032 9.51467 7.60632 9.20667 7.22366 8.824L7.71366 8.026C8.04032 8.362 8.47432 8.63733 9.01566 8.852C9.55699 9.05733 10.1357 9.16 10.7517 9.16C11.5543 9.16 12.175 8.98733 12.6137 8.642C13.0523 8.28733 13.2717 7.802 13.2717 7.186C13.2717 6.57933 13.0523 6.10333 12.6137 5.758C12.175 5.41267 11.5123 5.24 10.6257 5.24H9.92566V4.498L12.6417 1.096H7.62966V0.199999H13.9297V0.913999L11.1577 4.4Z" fill="#650107" fill-opacity="0.38"/>
</svg>
