<svg width="16" height="16" viewBox="0 0 16 16" fill="none" xmlns="http://www.w3.org/2000/svg">
<g clip-path="url(#clip0_572_8212)">
<path fill-rule="evenodd" clip-rule="evenodd" d="M7.99961 1.52864C8.65068 1.52864 9.27584 1.64352 9.85598 1.85384V1.78238C9.85598 0.799568 9.05641 0 8.07364 0H7.92593C6.94312 0 6.14355 0.799568 6.14355 1.78238V1.85293C6.72338 1.64324 7.34835 1.52864 7.99961 1.52864ZM5.7876 14.5566C6.16319 15.4058 7.01318 16 7.99981 16C8.98643 16 9.8364 15.4058 10.212 14.5566H5.7876ZM2.14108 13.6176H13.8585C14.0802 13.6176 14.2832 13.4681 14.3293 13.2512C14.375 13.0365 14.2771 12.8246 14.0786 12.7329C14.0314 12.7024 13.6769 12.4544 13.3219 11.7043C12.6699 10.3267 12.5331 8.38616 12.5331 7.00081C12.5331 6.9948 12.5329 6.98879 12.5327 6.98281C12.5231 4.49142 10.4933 2.46771 7.99962 2.46771C5.50006 2.46771 3.46649 4.50122 3.46649 7.00081C3.46649 8.38616 3.32964 10.3267 2.67766 11.7043C2.32266 12.4544 1.96808 12.7024 1.92097 12.7329C1.72246 12.8246 1.62461 13.0365 1.67025 13.2512C1.71635 13.4681 1.91941 13.6176 2.14108 13.6176Z" fill="url(#paint0_linear_572_8212)"/>
</g>
<defs>
<linearGradient id="paint0_linear_572_8212" x1="7.99978" y1="0" x2="7.99978" y2="16" gradientUnits="userSpaceOnUse">
<stop stop-color="#FE858D"/>
<stop offset="1" stop-color="#FE616B"/>
</linearGradient>
<clipPath id="clip0_572_8212">
<rect width="16" height="16" fill="white"/>
</clipPath>
</defs>
</svg>
